<?xml version="1.0" standalone="no"?>
<!DOCTYPE svg PUBLIC "-//W3C//DTD SVG 20010904//EN"
 "http://www.w3.org/TR/2001/REC-SVG-20010904/DTD/svg10.dtd">
<svg version="1.0" xmlns="http://www.w3.org/2000/svg"
 width="192.000000pt" height="192.000000pt" viewBox="0 0 192.000000 192.000000"
 preserveAspectRatio="xMidYMid meet">
<metadata>
Created by potrace 1.11, written by Peter Selinger 2001-2013
</metadata>
<g transform="translate(0.000000,192.000000) scale(0.100000,-0.100000)"
fill="#000000" stroke="none">
<path d="M81 1903 c-1 -7 -4 -12 -8 -12 -24 4 -35 -4 -46 -33 -6 -18 -10 -37
-8 -43 2 -5 3 -17 3 -25 0 -8 6 -32 14 -52 8 -21 10 -38 6 -38 -4 0 -2 -4 3
-8 6 -4 23 -32 39 -62 16 -30 42 -74 58 -97 15 -23 28 -45 28 -50 0 -5 9 -15
19 -23 11 -7 18 -17 15 -22 -3 -4 -1 -8 5 -8 5 0 12 -8 15 -17 4 -10 20 -33
36 -52 17 -18 30 -36 30 -40 0 -3 15 -22 33 -41 30 -31 33 -39 26 -69 -4 -19
-11 -37 -16 -40 -4 -3 -9 -15 -10 -26 -2 -11 -6 -36 -10 -55 -4 -19 -7 -78 -7
-130 -1 -88 2 -113 19 -180 4 -14 7 -31 7 -37 1 -7 5 -13 10 -13 4 0 8 -6 8
-13 0 -17 30 -80 43 -88 5 -3 7 -9 5 -11 -11 -18 173 -208 202 -208 6 0 10 -5
10 -11 0 -5 4 -8 9 -5 5 3 11 -1 15 -9 3 -8 12 -12 21 -9 8 3 15 2 15 -4 0
-11 58 -36 78 -33 6 1 12 -3 12 -9 0 -6 5 -8 10 -5 6 3 16 3 23 -2 14 -9 23
-11 97 -18 75 -8 124 -6 200 9 46 9 55 12 68 19 6 5 12 6 12 3 0 -3 16 2 35
10 33 13 36 13 52 -6 10 -11 23 -20 29 -20 7 0 14 -7 18 -15 3 -8 13 -15 21
-15 9 0 13 -4 10 -10 -3 -5 0 -10 7 -10 7 0 29 -14 48 -30 19 -16 40 -30 45
-30 6 0 17 -9 25 -19 7 -11 17 -18 21 -16 4 3 9 -2 13 -10 3 -8 12 -15 20 -15
8 0 21 -6 28 -14 16 -15 74 -47 84 -45 4 0 10 -3 13 -8 8 -12 97 -53 116 -53
8 0 15 -4 15 -8 0 -10 55 -8 88 2 12 4 22 12 22 17 0 6 4 8 9 5 5 -4 8 2 6 11
-1 10 0 22 3 28 10 16 9 65 0 65 -5 0 -7 4 -4 8 3 5 -1 20 -9 35 -8 15 -12 27
-9 27 2 0 -6 19 -18 43 -12 23 -22 45 -23 49 0 4 -7 16 -16 26 -8 10 -14 23
-11 30 2 7 -1 12 -7 12 -6 0 -11 7 -11 15 0 8 -4 15 -10 15 -5 0 -10 7 -10 15
0 8 -4 15 -10 15 -5 0 -10 6 -10 13 0 7 -9 23 -20 35 -11 12 -20 26 -20 32 0
5 -4 10 -10 10 -5 0 -10 7 -10 16 0 8 -5 12 -10 9 -5 -3 -10 3 -10 13 0 11 -7
23 -16 26 -9 4 -14 9 -11 12 2 3 -6 17 -20 32 -43 46 -57 72 -45 84 6 6 8 17
5 24 -3 8 -1 14 4 14 5 0 10 6 10 13 0 6 5 38 11 69 6 31 9 66 7 77 -2 12 1
21 6 21 6 0 8 4 4 10 -3 5 -8 37 -10 72 -5 57 -11 103 -15 103 -2 0 -11 38
-12 53 -1 6 -5 12 -10 12 -4 0 -8 6 -8 13 0 17 -30 80 -43 88 -5 3 -7 9 -5 11
11 18 -173 208 -202 208 -6 0 -10 5 -10 11 0 5 -4 8 -9 5 -5 -3 -12 1 -15 10
-4 9 -13 14 -21 10 -8 -3 -15 -1 -15 3 0 11 -59 35 -77 32 -7 -1 -13 3 -13 9
0 6 -5 8 -10 5 -5 -3 -16 -3 -22 2 -15 9 -24 11 -98 18 -75 8 -124 6 -200 -9
-46 -9 -55 -12 -67 -19 -7 -5 -13 -6 -13 -3 0 3 -10 2 -23 -3 -19 -7 -34 -1
-82 35 -33 23 -70 52 -81 63 -12 11 -25 17 -28 14 -3 -4 -6 -2 -6 4 0 6 -16
18 -35 27 -19 9 -35 21 -35 26 0 5 -7 7 -15 4 -9 -4 -15 0 -15 10 0 9 -8 16
-20 16 -11 0 -20 5 -20 10 0 5 -6 9 -12 7 -7 -1 -12 3 -11 8 1 6 -8 12 -19 12
-11 1 -28 9 -37 17 -10 9 -25 16 -34 16 -9 0 -17 5 -17 10 0 6 -11 10 -25 10
-14 0 -25 5 -25 11 0 6 -9 9 -20 6 -11 -3 -20 -1 -20 5 0 6 -6 8 -14 5 -7 -3
-18 -1 -24 5 -8 8 -15 8 -26 -1 -11 -9 -15 -9 -19 1 -4 10 -6 10 -6 1z m107
-78 c17 1 32 -3 32 -8 0 -5 7 -7 15 -3 8 3 15 1 15 -5 0 -6 5 -7 10 -4 6 3 10
1 10 -5 0 -6 5 -8 10 -5 6 3 10 1 10 -5 0 -7 6 -10 14 -7 8 3 16 3 18 -1 4 -9
58 -42 81 -49 9 -3 17 -9 17 -14 0 -5 6 -9 14 -9 7 0 19 -7 26 -15 7 -8 16
-13 20 -10 5 3 10 1 12 -3 1 -5 26 -25 55 -44 101 -69 146 -114 80 -81 -22 11
-30 21 -23 25 6 5 2 8 -11 8 -13 0 -23 4 -23 9 0 5 -13 14 -30 21 -16 7 -30
17 -30 22 0 5 -4 6 -10 3 -5 -3 -10 -2 -10 3 0 5 -18 17 -40 27 -22 10 -40 22
-40 27 0 5 -4 6 -10 3 -5 -3 -10 -1 -10 5 0 6 -4 8 -10 5 -5 -3 -10 -1 -10 5
0 6 -4 8 -10 5 -5 -3 -10 -1 -10 5 0 7 -7 10 -15 6 -8 -3 -15 0 -15 6 0 6 -3
9 -6 5 -3 -3 -18 -1 -33 5 -44 18 -94 16 -113 -5 -10 -11 -15 -24 -12 -28 3
-5 0 -9 -7 -9 -8 0 -8 -4 -2 -12 6 -7 9 -21 8 -30 -2 -10 1 -18 7 -18 6 0 8
-7 4 -15 -3 -8 -2 -15 2 -15 4 0 21 -30 37 -65 17 -36 33 -65 38 -65 4 0 7 -9
7 -20 0 -11 7 -20 16 -20 8 0 12 -4 9 -10 -3 -5 -1 -10 6 -10 6 0 9 -8 6 -19
-3 -14 -1 -18 9 -14 8 3 14 -1 14 -11 0 -9 5 -16 10 -16 6 0 10 -7 10 -16 0
-9 5 -12 13 -8 6 4 9 4 5 0 -3 -4 1 -16 10 -26 21 -25 24 -50 6 -43 -8 3 -12
9 -9 13 3 4 -2 10 -10 14 -8 3 -15 13 -15 21 0 10 -5 13 -12 9 -7 -4 -10 -4
-6 0 4 5 -4 20 -18 34 -13 15 -24 32 -24 39 0 7 -4 13 -9 13 -5 0 -16 16 -25
35 -9 19 -21 35 -27 35 -6 0 -7 5 -4 10 3 6 1 10 -6 10 -7 0 -9 3 -6 6 4 4 -3
15 -15 25 -11 11 -18 19 -15 19 4 0 -5 20 -19 45 -13 25 -21 45 -17 45 4 0 0
5 -10 11 -9 6 -15 14 -12 19 3 5 1 11 -5 15 -6 4 -8 11 -4 16 3 5 2 15 -3 22
-18 26 -2 78 29 92 13 6 25 8 28 5 3 -3 20 -5 38 -5z m273 -276 c20 -10 39
-16 43 -14 3 3 4 2 1 -2 -3 -4 8 -14 26 -23 l31 -17 -58 -56 c-41 -41 -63 -56
-76 -51 -10 3 -18 10 -18 16 0 6 -11 26 -26 45 -14 18 -21 33 -17 33 4 0 2 4
-6 9 -7 5 -14 24 -16 42 -4 53 35 59 116 18z m1109 -910 c0 -15 26 -39 34 -32
3 4 6 -1 6 -11 0 -10 7 -24 15 -32 8 -9 15 -20 15 -25 0 -19 -16 -8 -40 29
-14 20 -31 43 -37 50 -15 16 -17 46 -3 37 6 -3 10 -11 10 -16z m-66 -100 c-2
-4 3 -9 11 -13 8 -3 15 -12 15 -21 0 -8 5 -15 12 -15 6 0 8 -3 5 -7 -4 -3 0
-15 10 -25 19 -21 26 -87 11 -105 -6 -7 -20 -11 -32 -9 -21 4 -96 44 -106 57
-3 3 -18 13 -34 21 l-28 15 63 65 c39 40 67 62 71 55 4 -6 5 -14 2 -18z m199
-85 c26 -41 47 -82 47 -90 0 -8 4 -13 8 -10 5 3 14 -12 21 -32 8 -20 21 -46
30 -56 13 -16 13 -18 1 -11 -12 7 -13 6 -3 -6 6 -8 14 -26 17 -39 2 -14 7 -33
11 -42 4 -10 3 -18 -3 -18 -6 0 -8 -8 -5 -18 3 -12 -4 -22 -19 -29 -38 -18
-58 -23 -58 -14 0 5 -9 7 -20 4 -11 -3 -20 -1 -20 4 0 5 -10 10 -22 10 -13 1
-24 7 -26 13 -2 5 -8 8 -13 4 -5 -3 -9 0 -9 5 0 6 -3 10 -7 9 -16 -3 -63 22
-63 33 0 7 -3 9 -6 6 -7 -6 -63 28 -75 46 -3 5 -9 8 -13 8 -10 -2 -60 32 -69
46 -4 7 -12 13 -18 13 -5 0 -19 9 -31 20 -12 11 -27 20 -34 20 -6 0 -14 7 -18
15 -3 8 -12 15 -21 15 -13 0 -13 2 -3 14 11 11 15 11 29 -5 9 -11 21 -19 28
-19 6 0 11 -4 11 -8 0 -5 18 -18 40 -31 22 -12 40 -26 40 -32 0 -5 5 -9 11 -9
6 0 23 -8 37 -19 112 -77 237 -117 270 -84 20 19 27 80 12 98 -7 9 -10 18 -7
21 3 3 -6 27 -19 52 -14 25 -22 53 -19 61 3 9 3 12 -1 8 -9 -9 -44 47 -44 71
0 15 -2 15 -10 2 -8 -12 -10 -11 -10 8 0 12 -5 22 -11 22 -5 0 -7 5 -4 10 11
18 20 10 68 -66z"/>
</g>
</svg>
